<svg width="16" height="18" viewBox="0 0 16 18" fill="none" xmlns="http://www.w3.org/2000/svg">
<path d="M14.2857 7.875H13.4286V5.34375C13.4286 2.39766 10.9929 0 8 0C5.00714 0 2.57143 2.39766 2.57143 5.34375V7.875H1.71429C0.767857 7.875 0 8.63086 0 9.5625V16.3125C0 17.2441 0.767857 18 1.71429 18H14.2857C15.2321 18 16 17.2441 16 16.3125V9.5625C16 8.63086 15.2321 7.875 14.2857 7.875ZM10.5714 7.875H5.42857V5.34375C5.42857 3.94805 6.58214 2.8125 8 2.8125C9.41786 2.8125 10.5714 3.94805 10.5714 5.34375V7.875Z" fill="black"/>
</svg>
