<svg xmlns="http://www.w3.org/2000/svg" class="_7oal" height="36px" width="36px" viewBox="0 0 36 36"><g fill="none" fill-rule="evenodd" stroke="none" stroke-width="1px"><g stroke="none" fill="none" stroke-width="1px"><polygon points="0 36 36 36 36 0 0 0" stroke="none" fill="none" stroke-width="1px"></polygon><path d="M19.5034,28 C19.2274,28 19.0034,27.776 19.0034,27.5 L19.0034,25.435 C21.7154,25.1145 23.4769,23.556 23.4769,21.048 C23.4769,18.548 21.8399,17.5245 19.6994,17.029 L17.3914,16.47 C16.0799,16.164 15.4814,15.5205 15.4814,14.603 C15.4814,13.3265 16.4894,12.5045 18.0839,12.5045 C19.3974,12.5045 20.2964,13.0485 20.7084,13.8045 C20.9334,14.2175 21.3544,14.4845 21.8254,14.4845 C22.6699,14.4845 23.2504,13.5815 22.8469,12.8395 C22.1499,11.5585 20.7184,10.7645 19.0034,10.5565 L19.0034,8.5 C19.0034,8.224 19.2274,8 19.5034,8 L26.9999,8 C29.2094,8 30.9999,9.791 30.9999,12 L30.9999,24 C30.9999,26.209 29.2094,28 26.9999,28 L19.5034,28 Z" fill="#0099ff" stroke="none" stroke-width="1px"></path><path d="M9,28 C6.791,28 5,26.209 5,24 L5,12 C5,9.791 6.791,8 9,8 L16.5035,8 C16.7795,8 17.0035,8.224 17.0035,8.5 L17.0035,10.583 C14.7045,10.933 12.9945,12.4 12.9945,14.803 C12.9945,17.166 14.5375,18.284 16.4265,18.7165 L18.7235,19.2755 C20.2345,19.645 21,20.204 21,21.2695 C21,22.5775 19.92,23.4835 18.105,23.4835 C16.685,23.4835 15.7805,22.9205 15.306,22.1595 C15.0605,21.765 14.654,21.5 14.1895,21.5 C13.268,21.5 12.689,22.508 13.1655,23.296 C13.8105,24.363 14.9655,25.244 17.0035,25.449 L17.0035,27.5 C17.0035,27.776 16.7795,28 16.5035,28 L9,28 Z" fill="#0099ff" stroke="none" stroke-width="1px"></path></g></g></svg>