<svg xmlns="http://www.w3.org/2000/svg" height="22px" width="22px" viewBox="0 0 36 36"><g id="bell" fill="none" fill-rule="evenodd" stroke="none" stroke-width="1px"><polygon id="Fill-19" points="0 36 36 36 36 0 0 0" stroke="none" fill="none" stroke-width="1px"></polygon><path id="Fill-24" d="M15.5120016,28 L20.4879984,28 C20.7988428,28 21.0505024,28.2755 20.9913177,28.5755 C20.718272,29.957 19.482852,31 18.0002487,31 C16.517148,31 15.281728,29.957 15.0086823,28.5755 C14.9494976,28.2755 15.2011572,28 15.5120016,28 M18,6 C21.910881,6 25.2161675,8.899 25.7263259,12.776 L26.7996071,20.94 C27.1293863,23.312 28.914191,22.814 28.9981348,24.458 C29.0416057,25.305 28.3190896,26 27.4706577,26 L8.5288426,26 C7.68091044,26 6.95839429,25.305 7.00186518,24.458 C7.0853093,22.814 8.87011406,23.312 9.20039288,20.94 L10.2736741,12.776 C10.7838325,8.899 14.089119,6 18,6" fill="#000000" stroke="none" stroke-width="1px"></path></g></svg>