<svg xmlns="http://www.w3.org/2000/svg" height="32px" width="32px" viewBox="0 0 36 36"><g id="camcorder" fill="none" fill-rule="evenodd" stroke="none" stroke-width="1px"><polygon id="Fill-8" points="0 36 36 36 36 0 0 0" stroke="none" fill="none" stroke-width="1px"></polygon><path id="original" d="M20,27 L9,27 C6.791,27 5,25.209 5,23 L5,13 C5,10.791 6.791,9 9,9 L20,9 C22.209,9 24,10.791 24,13 L24,23 C24,25.209 22.209,27 20,27 M30.5525,23.3995 L26.829,21.536 C26.321,21.282 26,20.762 26,20.193 L26,15.808 C26,15.2395 26.321,14.719 26.829,14.465 L30.5525,12.6015 C31.218,12.269 32,12.753 32,13.497 L32,22.504 C32,23.2485 31.218,23.732 30.5525,23.3995" fill="#0099ff" stroke="none" stroke-width="1px"></path></g></svg>