<svg xmlns="http://www.w3.org/2000/svg" class="_7oal" height="36px" width="36px" viewBox="0 1 36 36"><path d="M10,30 L7.75,30 C6.625,30 6,27.7515306 6,23.3673469 C6,18.9831633 6.625,16.7346939 7.75,16.7346939 L10,16.7346939 C10.552,16.7346939 11,17.1918367 11,17.755102 L11,28.9795918 C11,29.5428571 10.552,30 10,30 M17,6.02040816 C17,5.44540816 17.4195,5.00255102 18,5 C19.2035,5 22,5.79081633 22,10.6122449 C22,12.2443878 21.8015,13.130102 21.7195,13.7163265 C21.719,13.7183673 21.719,13.7204082 21.7185,13.722449 C21.6865,13.9566327 21.872,14.1647959 22.113,14.1647959 C26.908,14.1647959 29.469,15.4336735 29.469,16.7290816 C29.469,17.3612245 29.211,17.9321429 28.7975,18.3535714 C29.513,18.7591837 30,19.5091837 30,20.3780612 C30,21.3642857 29.4255,22.2045918 28.5475,22.5515306 C28.821,22.9326531 28.9845,23.3954082 28.9845,23.8969388 C28.9845,24.9704082 28.3395,25.8653061 27.3365,26.1438776 C27.4285,26.377551 27.4845,26.6290816 27.4845,26.8943878 C27.4845,28.0459184 25.5485,28.9795918 21,28.9795918 C17.675,28.9795918 15.3815,28.3857143 14.5,27.9591837 C13.851,27.6454082 13,27.0770408 13,25.4081633 L13,18.7755102 C13,15.0403061 17.25,13.7760204 17.25,10.1020408 C17.25,7.78826531 17,6.81326531 17,6.02040816" fill="#0099ff" stroke="none" stroke-width="1px"></path></svg>