<svg xmlns="http://www.w3.org/2000/svg" class="_7oal" height="36px" width="36px" viewBox="0 0 36 36"><g fill="none" fill-rule="evenodd" stroke="none" stroke-width="1px"><polygon points="0 36 36 36 36 0 0 0" stroke="none" fill="none" stroke-width="1px"></polygon><path d="M27.002,13.5 L22.502,13.5 C21.95,13.5 21.502,13.948 21.502,14.5 L21.502,21.5 C21.502,22.052 21.95,22.5 22.502,22.5 C23.054,22.5 23.502,22.052 23.502,21.5 L23.502,19.5 L26.502,19.5 C27.054,19.5 27.502,19.052 27.502,18.5 C27.502,17.948 27.054,17.5 26.502,17.5 L23.502,17.5 L23.502,15.5 L27.002,15.5 C27.554,15.5 28.002,15.052 28.002,14.5 C28.002,13.948 27.554,13.5 27.002,13.5 Z M19.502,14.5 C19.502,13.948 19.054,13.5 18.502,13.5 C17.95,13.5 17.502,13.948 17.502,14.5 L17.502,21.5 C17.502,22.052 17.95,22.5 18.502,22.5 C19.054,22.5 19.502,22.052 19.502,21.5 L19.502,14.5 Z M14.963,16.9995 L12.502,17 C11.95,17 11.502,17.448 11.502,18 C11.502,18.552 11.95,19 12.502,19 L13.8855,19 C13.7835,20.1495 13.095,21 11.829,21 C10.3875,21 9.4925,19.725 9.4925,17.95 C9.4925,16.207 10.4655,14.9785 11.886,14.9785 C12.6395,14.9785 13.109,15.3665 13.4295,15.764 C13.6765,16.0695 14,16.229 14.353,16.229 C15.0175,16.229 15.574,15.5085 15.094,14.791 C14.471,13.859 13.335,13.25 11.8795,13.25 C9.179,13.25 7.502,15.2135 7.502,17.9735 C7.502,20.7655 9.071,22.75 11.798,22.75 C14.352,22.75 16.002,20.982 16.002,17.986 C16.002,17.441 15.5365,16.9995 14.963,16.9995 Z M27,30 L17,30 C15.811,30 14.7455,29.48 14.0135,28.656 C13.6395,28.235 13.1,28 12.537,28 L9,28 C6.791,28 5,26.209 5,24 L5,10 C5,7.791 6.791,6 9,6 L19,6 C20.189,6 21.2545,6.52 21.9865,7.3435 C22.3605,7.7645 22.9,8 23.463,8 L27,8 C29.209,8 31,9.791 31,12 L31,26 C31,28.209 29.209,30 27,30 Z" fill="#0099ff" stroke="none" stroke-width="1px"></path></g></svg>