<svg xmlns="http://www.w3.org/2000/svg" class="_7oal" height="36px" width="36px" viewBox="0 0 36 36"><g fill="none" fill-rule="evenodd" stroke="none" stroke-width="1px"><g stroke="none" fill="none" stroke-width="1px"><polygon points="0 36 36 36 36 0 0 0" stroke="none" fill="none" stroke-width="1px"></polygon><path d="M14,28 L22,28 C22.552,28 23,28.448 23,29 C23,29.552 22.552,30 22,30 L14,30 C13.448,30 13,29.552 13,29 C13,28.448 13.448,28 14,28 M18,22.5 C15.239,22.5 13,20.2615 13,17.5 L13,11 C13,8.2385 15.239,6 18,6 C20.761,6 23,8.2385 23,11 L23,17.5 C23,20.2615 20.761,22.5 18,22.5 M18,26.5 C13.0295,26.5 9,22.4705 9,17.5 C9,16.948 9.448,16.5 10,16.5 C10.552,16.5 11,16.948 11,17.5 C11,21.366 14.134,24.5 18,24.5 C21.866,24.5 25.0005,21.366 25.0005,17.5 L25,17.5 C25,16.948 25.448,16.5 26,16.5 C26.552,16.5 27,16.948 27,17.5 C27,22.4705 22.9705,26.5 18,26.5" fill="#0099ff" stroke="none" stroke-width="1px"></path></g></g></svg>