<svg xmlns="http://www.w3.org/2000/svg" height="22px" width="22px" viewBox="0 0 36 36"><g id="message-cross" fill="none" fill-rule="evenodd" stroke="none" stroke-width="1px"><g id="Page-1" fill="#000000" stroke="none" stroke-width="1px"><path id="Fill-1" d="M6.01700638,17.4668416 L6.01700638,17.4658421 L6.01700638,17.4648425 C6.01750656,10.8121778 11.0393898,6.0192206 18.0085032,6.0192206 C19.7721646,6.0192206 21.4057772,6.33208726 22.8678254,6.90084485 C23.5320745,7.15873494 23.7126422,8.01536984 23.2089534,8.51965492 L8.43691384,23.2983562 C8.09728648,23.6382114 7.52607228,23.5527478 7.303989,23.1264295 C6.7647868,22.0923702 6.01700638,20.4455721 6.01700638,17.4668416 M29.669376,7.74698423 L27.914718,9.50223614 C27.6101038,9.8071062 27.5725897,10.2879013 27.8286858,10.6342537 C29.2097036,12.5004583 30,14.8349633 30,17.4648425 L30,17.4658421 L30,17.4668416 C29.9994998,24.1195063 24.9781168,28.9904303 18.0085032,28.9904303 C16.8470677,28.9904303 15.7411529,28.8869744 14.7027635,28.6335824 C13.83994,28.423172 12.9391022,28.4446629 12.0977867,28.7315406 L8.73902714,29.7626012 C8.33687633,29.8995428 7.80567713,30 7.26647493,30 C6.55470802,30 6,29.6171632 6,29.023916 C6,28.7640268 6.09453545,28.5026382 6.29310992,28.3042227 L28.2943604,6.29310387 C28.7235213,5.86328706 29.4472927,5.90626874 29.8174315,6.42154913 C30.1085407,6.82637659 30.0215081,7.3946344 29.669376,7.74698423" stroke="none" fill="#000000" stroke-width="1px"></path></g></g></svg>