<svg xmlns="http://www.w3.org/2000/svg" height="32px" width="32px" viewBox="0 0 36 36"><g id="phone" fill="none" fill-rule="evenodd" stroke="none" stroke-width="1px"><polygon id="Fill-8" points="0 36 36 36 36 0 0 0" stroke="none" fill="none" stroke-width="1px"></polygon><path id="Fill-11" d="M12.8546683,23.0915802 C10.2003459,20.4371382 8.18827548,17.4933995 7.18895039,14.801598 C6.11677282,11.9134196 6.30082118,9.54827444 7.70754499,8.14106577 C8.38574404,7.46332572 9.22115105,6.9556194 9.80301228,6.64860076 C10.1768605,6.45174482 10.6202062,6.44887101 10.9902201,6.6495587 C12.2608248,7.33735708 14.2542027,9.8624776 14.6055242,11.228016 C14.6980277,11.5867632 14.6266131,11.9694589 14.4094936,12.2774354 L12.8029047,14.5630718 C12.7056083,14.7019726 12.682123,14.8820647 12.7415553,15.0406032 C13.4096892,16.8233229 14.2192144,18.3129141 15.9254961,20.01852 C17.6303399,21.7246049 19.1209399,22.5340612 20.904867,23.2027008 C21.0635129,23.2625718 21.2432476,23.2391024 21.3822424,23.1413929 L23.6205389,21.5679822 C23.9339963,21.3476569 24.313596,21.2868279 24.6572488,21.3696894 C26.1948195,21.7356211 28.7992956,23.6898115 29.3811568,24.9135753 C29.5474713,25.2637011 29.5388441,25.6674713 29.3576715,26.0209499 C29.0993327,26.5267404 28.5534185,27.4875506 27.8018877,28.2395308 C24.2474537,31.7915592 16.8807262,27.1187451 12.8546683,23.0915802" fill="#0099ff" stroke="none" stroke-width="1px"></path></g></svg>