<svg xmlns="http://www.w3.org/2000/svg" class="_7oal" height="36px" width="36px" viewBox="0 0 36 36"><g fill="none" fill-rule="evenodd" stroke="none" stroke-width="1px"><g stroke="none" fill="none" stroke-width="1px"><polygon points="0 36 36 36 36 0 0 0" stroke="none" fill="none" stroke-width="1px"></polygon><path d="M28,14 C26.8955,14 26,14.8955 26,16 C26,17.1045 26.8955,18 28,18 C29.1045,18 30,17.1045 30,16 C30,14.8955 29.1045,14 28,14 M24,18 C22.8955,18 22,18.8955 22,20 C22,21.1045 22.8955,22 24,22 C25.104,22 26,21.1045 26,20 C26,18.8955 25.104,18 24,18 M13,17 L11,17 L11,15 C11,14.448 10.552,14 10,14 C9.448,14 9,14.448 9,15 L9,17 L7,17 C6.448,17 6,17.448 6,18 C6,18.552 6.448,19 7,19 L9,19 L9,21 C9,21.552 9.448,22 10,22 C10.552,22 11,21.552 11,21 L11,19 L13,19 C13.552,19 14,18.552 14,18 C14,17.448 13.552,17 13,17 M25,27 L11,27 C6.0295,27 2,22.9705 2,18 C2,13.0295 6.0295,9 11,9 L25,9 C29.97,9 34,13.0295 34,18 C34,22.9705 29.97,27 25,27" fill="#0099ff" stroke="none" stroke-width="1px"></path></g></g></svg>