<svg xmlns="http://www.w3.org/2000/svg" height="22px" width="22px" version="1.1" viewBox="0 0 36 36"><g id="pencil-underline" fill="none" fill-rule="evenodd" stroke="none" stroke-width="1px"><g id="Group" stroke="none" fill="none" stroke-width="1px"><mask id="mask-2" fill="white"><polygon id="path-1" points="0 36 36 36 36 0 0 0"></polygon></mask><g id="Clip-4" stroke="none" fill="none" stroke-width="1px"></g><path id="Fill-1" d="M18.3042,15.77345 L12.9857,26.39495 C12.7662,26.83245 12.4477,27.21345 12.0552,27.50745 L8.2607,30.34495 C7.7407,30.73395 6.9992,30.36245 6.9992,29.71245 L6.9992,24.98495 C6.9992,24.49545 7.1137,24.01295 7.3332,23.57495 L12.6547,12.94745 C12.8522,12.55245 13.3322,12.39195 13.7272,12.58995 L17.9467,14.69895 C18.3422,14.89645 18.5022,15.37795 18.3042,15.77345 Z M19.9172,12.55245 C19.7192,12.94745 19.2392,13.10745 18.8442,12.90995 L14.6247,10.80095 C14.2292,10.60295 14.0692,10.12145 14.2667,9.72595 L15.4537,7.35495 C16.2287,5.80595 18.0962,5.05145 19.6687,5.77695 C21.2937,6.52695 21.9652,8.46245 21.1697,10.04895 L19.9172,12.55245 Z M28.9882,29.66445 C28.9082,30.15645 28.4462,30.49645 27.9477,30.49645 L12.4167,30.49645 C12.0117,30.49645 11.8392,29.98145 12.1632,29.73845 L13.2767,28.90095 C13.6257,28.63845 14.0507,28.49645 14.4877,28.49645 L28.0012,28.49645 C28.6087,28.49645 29.0902,29.03795 28.9882,29.66445 Z" fill="#000000" mask="url(#mask-2)" stroke="none" stroke-width="1px"></path></g></g></svg>