<svg xmlns="http://www.w3.org/2000/svg" class="_7oal" height="24" width="24" viewBox="0 0 24 24"><g fill="none" fill-rule="evenodd" stroke="none" stroke-width="1px"><polygon points="-6,30 30,30 30,-6 -6,-6 " stroke="none" fill="none" stroke-width="1px"></polygon><path d="m18,11l-5,0l0,-5c0,-0.552 -0.448,-1 -1,-1c-0.5525,0 -1,0.448 -1,1l0,5l-5,0c-0.5525,0 -1,0.448 -1,1c0,0.552 0.4475,1 1,1l5,0l0,5c0,0.552 0.4475,1 1,1c0.552,0 1,-0.448 1,-1l0,-5l5,0c0.552,0 1,-0.448 1,-1c0,-0.552 -0.448,-1 -1,-1m-6,13c-6.6275,0 -12,-5.3725 -12,-12c0,-6.6275 5.3725,-12 12,-12c6.627,0 12,5.3725 12,12c0,6.6275 -5.373,12 -12,12" style="" stroke="none" fill="#0099ff" stroke-width="1px"></path></g></svg>