<svg xmlns="http://www.w3.org/2000/svg" height="22px" width="22px" viewBox="0 0 36 36"><g id="magnifying-glass" fill="none" fill-rule="evenodd" stroke="none" stroke-width="1px"><g id="Search" stroke="none" fill="none" stroke-width="1px"><polygon id="Bounding-Box" points="0 36 36 36 36 0 0 0" stroke="none" fill="none" stroke-width="1px"></polygon><path id="Fill-1" d="M15.499,9.000053 C11.909,9.000053 8.9995,11.9106492 8.9995,15.5009175 C8.9995,19.0911858 11.909,22.0022817 15.499,22.0022817 C19.0885,22.0022817 21.998,19.0911858 21.998,15.5009175 C21.998,11.9106492 19.0885,9.000053 15.499,9.000053 Z M25.4875,28.30874 L21.6335,23.8523894 C21.313,23.482068 20.7755,23.4056049 20.355,23.6574834 C18.934,24.5085729 17.276,25.0023347 15.499,25.0023347 C10.253,25.0023347 6,20.7483865 6,15.5009175 C6,10.2539482 10.253,6 15.499,6 C20.7445,6 24.9975,10.2539482 24.9975,15.5009175 C24.9975,17.2770608 24.5045,18.9357608 23.655,20.3565755 C23.4065,20.7708757 23.491,21.3016197 23.8555,21.6184668 L28.3065,25.4841024 L25.4875,28.30874 Z M28.3065,25.4841024 C29.183,26.2452352 29.231,27.5915859 28.4105,28.4131896 C27.591,29.2352931 26.247,29.1873162 25.4875,28.30874 L28.3065,25.4841024 Z" fill="#000000" stroke="none" stroke-width="1px"></path></g></g></svg>