<svg xmlns="http://www.w3.org/2000/svg" height="22px" width="22px" viewBox="0 0 36 36"><g id="dots-3-horizontal" fill="none" fill-rule="evenodd" stroke="none" stroke-width="1px"><g id="Page-1" fill="rgba(0, 0, 0, 0.34)" stroke="none" stroke-width="1px"><path id="Fill-1" d="M7,18 C7,16.4815417 8.23154167,15.25 9.75,15.25 C11.2684583,15.25 12.5,16.4815417 12.5,18 C12.5,19.5189167 11.2684583,20.75 9.75,20.75 C8.23154167,20.75 7,19.5189167 7,18 Z M15.25,18 C15.25,16.4815417 16.4815417,15.25 18,15.25 C19.5184583,15.25 20.75,16.4815417 20.75,18 C20.75,19.5189167 19.5184583,20.75 18,20.75 C16.4815417,20.75 15.25,19.5189167 15.25,18 Z M23.5,18 C23.5,16.4815417 24.7315417,15.25 26.25,15.25 C27.7684583,15.25 29,16.4815417 29,18 C29,19.5189167 27.7684583,20.75 26.25,20.75 C24.7315417,20.75 23.5,19.5189167 23.5,18 Z" stroke="none" fill="rgba(0, 0, 0, 0.34)" stroke-width="1px"></path></g></g></svg>