<svg xmlns="http://www.w3.org/2000/svg" height="30px" width="30px" viewBox="0 0 36 36"><g id="arrow-left" fill="none" fill-rule="evenodd" stroke="none" stroke-width="1px"><g id="ArrowLeft" transform="translate(18.000000, 18.000000) scale(-1, 1) translate(-18.000000, -18.000000) " stroke="none" fill="none" stroke-width="1px"><polygon id="Bounding-Box" points="0 36 36 36 36 0 0 0" stroke="none" fill="none" stroke-width="1px"></polygon><path id="Fill-1" d="M7.4993436,16.4891009 L24.8703244,16.4891009 L17.9462377,9.56085648 C17.3606035,8.97508945 17.3606035,8.02496734 17.9462377,7.43970012 C18.5318719,6.85343329 19.4805893,6.85343329 20.0657234,7.43970012 L29.5603993,16.9394218 C30.1465336,17.524689 30.1465336,18.475311 29.5603993,19.0605782 L20.0657234,28.5602999 C19.4805893,29.1465667 18.5318719,29.1465667 17.9462377,28.5602999 C17.3606035,27.9745329 17.3606035,27.0249105 17.9462377,26.4391435 L24.8918294,19.4899074 L7.4993436,19.4899074 C6.67115381,19.4899074 6,18.8181746 6,17.9895042 C6,17.1608338 6.67115381,16.4891009 7.4993436,16.4891009 Z" fill="#000000" stroke="none" stroke-width="1px"></path></g></g></svg>